<svg width="73" height="77" viewBox="0 0 73 77" fill="none" xmlns="http://www.w3.org/2000/svg">
<path d="M37.6096 77C21.5893 76.9663 8.1562 67.3855 2.65317 52.9385C-3.52405 36.732 1.36379 17.9829 14.4177 7.80434C30.8088 -4.97568 53.4277 -1.74279 65.5377 15.1794C78.6759 33.5412 74.0493 59.7748 54.9362 71.6876C49.2646 75.2236 43.0453 76.8906 37.6096 77ZM60.5404 55.4726C55.9138 58.6719 52.113 63.2771 45.506 62.5699C41.3177 62.1236 38.5619 65.1713 38.5619 69.3556C38.5619 70.3995 38.6293 71.4519 38.5535 72.4958C38.4608 73.8429 39.0507 74.2554 40.3064 74.0449C43.3318 73.523 46.3151 72.8663 49.1466 71.6371C67.4086 63.6812 75.5073 41.8171 67.1052 23.1522C58.8633 4.82402 37.7361 -2.59311 20.6876 6.853C7.54101 14.1354 0.251387 29.7021 3.18409 44.8058C6.08308 59.7495 14.6789 69.7092 29.6964 73.4219C34.9803 74.7269 34.4073 74.9205 34.4494 69.8523C34.4494 69.7176 34.4494 69.5913 34.4494 69.4566C34.4494 65.1208 31.7695 62.2836 27.3957 62.5446C23.7046 62.7635 20.6118 61.7701 17.7465 59.5643C15.9767 58.2004 13.9963 57.0975 12.0075 55.1696C16.8448 54.8496 20.9826 54.9843 24.2945 58.394C25.0951 59.2191 25.7777 60.2799 27.1092 60.3557C29.3425 60.4735 31.2976 61.2228 32.9746 62.7214C33.9606 63.6054 34.5421 63.4118 34.6601 62.031C34.8961 59.2191 34.8286 56.4156 34.7191 53.6036C34.5927 50.3455 32.9831 48.5775 29.747 47.904C27.1514 47.3652 24.522 47.7777 21.9264 47.5504C19.8702 47.3736 17.5611 47.8619 15.8335 46.6327C12.5215 44.2754 10.0439 41.0593 7.49044 37.7759C8.67027 37.3718 9.52143 37.8517 10.3726 38.0538C14.0553 38.9125 17.7465 40.3353 20.1146 43.1473C22.0697 45.4709 23.9743 46.0097 26.6457 45.875C28.82 45.7656 31.0869 45.4541 32.9746 47.1294C34.2724 48.2744 34.8034 47.5504 34.7696 46.1444C34.7022 43.5345 34.5674 40.9246 34.5 38.3063C34.4831 37.5149 33.9016 37.2203 33.4381 36.7741C31.0363 34.4925 28.2638 33.4654 24.9013 33.8274C23.3843 33.9874 21.6989 34.2652 20.2915 33.356C16.2211 30.7124 14.207 26.5618 12.3361 22.3103C16.6509 24.7518 20.8646 27.2606 23.7467 31.4028C24.3619 32.2868 25.2131 32.5141 26.1317 32.4383C28.7694 32.2278 31.129 32.6825 33.1685 34.5515C34.2556 35.5533 34.7781 34.8209 34.7949 33.6254C34.8286 31.7311 34.8371 29.8368 34.8286 27.9426C34.8202 23.952 34.4073 23.4047 30.5307 22.4955C29.3003 22.2092 28.1711 21.8641 27.4042 20.7191C25.2215 17.4525 24.2776 13.7902 23.6287 9.57233C27.0081 12.1317 29.6627 14.8595 30.9689 18.4796C31.66 20.416 32.7977 21.4852 34.4578 22.3524C36.9607 23.6573 40.6772 22.0409 41.6042 19.3468C42.9863 15.3309 45.7083 12.3422 49.2056 9.69862C49.2393 11.635 48.6747 13.1757 48.2365 14.7248C47.0988 18.6901 45.7673 22.445 40.7109 23.0343C38.9159 23.2448 38.0479 24.676 38.1406 26.6292C38.2417 28.8434 38.149 31.0744 38.1743 33.297C38.1827 33.8611 37.9804 34.5767 38.6041 34.9051C39.2193 35.225 39.7755 34.7283 40.1547 34.3578C41.9497 32.6235 44.0987 32.2531 46.4667 32.472C47.7814 32.5898 48.7168 32.0931 49.5849 30.9397C52.4923 27.0754 56.4952 24.5413 61.0123 21.9567C59.6133 25.1559 58.0964 27.7152 56.2761 30.1062C54.3126 32.6824 51.9698 34.4589 48.4472 33.92C47.5539 33.7853 46.61 34.0126 45.7083 33.9116C42.5902 33.5496 40.9721 36.0416 38.8063 37.4813C38.5956 37.616 38.5198 38.0538 38.5029 38.3568C38.3765 40.9667 38.267 43.5766 38.1743 46.1865C38.1237 47.6767 38.6799 48.2323 39.9777 47.1631C41.3851 46.0097 42.9694 45.7235 44.7307 45.8413C45.9695 45.9255 47.2252 45.7656 48.4556 45.875C49.9978 46.0181 50.9501 45.3699 51.9192 44.1996C55.3576 40.0575 60.1358 38.5168 65.2849 37.7002C62.8916 41.0762 60.3128 44.2417 57.043 46.7674C56.6132 47.0958 56.116 47.1715 55.5767 47.2305C53.04 47.5167 50.495 47.6346 47.9415 47.6177C46.2476 47.6093 44.4948 47.4325 42.8767 47.9966C41.0648 48.6364 38.9496 49.2594 38.5282 51.4484C37.8625 54.9254 38.1574 58.4867 38.2333 62.0142C38.2585 63.3107 38.8569 63.6475 39.9356 62.7719C41.2671 61.7027 42.6239 60.6166 44.4273 60.583C46.3656 60.5493 47.655 59.4969 48.9275 58.2088C52.2057 54.9002 56.2846 54.8244 60.5404 55.4726Z" fill="white" fill-opacity="0.9"/>
</svg>
